<?xml version="1.0" encoding="UTF-8" standalone="no"?><!DOCTYPE svg PUBLIC "-//W3C//DTD SVG 1.1//EN" "http://www.w3.org/Graphics/SVG/1.1/DTD/svg11.dtd"><svg width="100%" height="100%" viewBox="0 0 5874 4256" version="1.1" xmlns="http://www.w3.org/2000/svg" xmlns:xlink="http://www.w3.org/1999/xlink" xml:space="preserve" xmlns:serif="http://www.serif.com/" style="fill-rule:evenodd;clip-rule:evenodd;stroke-linejoin:round;stroke-miterlimit:2;"><g><path d="M3207.08,2296.75l-2205.85,-0c-32.795,-0 -59.375,-26.58 -59.375,-59.358l0,-1816.49c0,-32.795 26.58,-59.375 59.375,-59.375l2205.85,-0c32.796,-0 59.375,26.58 59.375,59.375l-0,1816.49c-0,32.778 -26.579,59.358 -59.375,59.358Zm-2364.1,-1857.1l0,1778.98c0,88.576 71.805,160.382 160.382,160.382l2201.58,-0c88.559,-0 160.382,-71.806 160.382,-160.382l-0,-1778.98c-0,-88.576 -71.823,-160.382 -160.382,-160.382l-2201.58,-0c-88.577,-0 -160.382,71.806 -160.382,160.382Z" style="fill:#fadc96;fill-rule:nonzero;"/><path d="M4861.67,3975.75c-150.624,-0 -272.69,-122.066 -272.69,-272.691c-0,-150.625 122.066,-272.691 272.69,-272.691c150.626,-0 272.692,122.066 272.692,272.691c-0,150.625 -122.066,272.691 -272.692,272.691Zm0,-635.643c-200.485,0 -362.951,162.466 -362.951,362.952c-0,200.486 162.466,362.951 362.951,362.951c200.469,0 362.952,-162.465 362.952,-362.951c-0,-200.486 -162.483,-362.952 -362.952,-362.952Z" style="fill:#fadc96;fill-rule:nonzero;"/><path d="M4890.03,1281.41l-0,2308.92c-0,59.34 -48.091,107.448 -107.431,107.448l-3520.76,0c-59.34,0 -107.448,-48.108 -107.448,-107.448l0,-2308.92c0,-137.014 111.146,-248.23 248.229,-248.23l3239.18,0c137.118,0 248.23,111.216 248.23,248.23Z" style="fill:#fbf9fc;fill-rule:nonzero;"/><path d="M4898.72,1281.41l-17.362,-0l0,2308.92c0,27.309 -11.042,51.945 -28.923,69.844c-17.9,17.882 -42.535,28.906 -69.827,28.924l-3520.76,-0c-27.309,-0.018 -51.944,-11.042 -69.826,-28.924c-17.899,-17.899 -28.924,-42.535 -28.941,-69.844l-0,-2308.92c0.017,-66.129 26.805,-125.973 70.174,-169.358c43.367,-43.368 103.211,-70.191 169.374,-70.191l3239.18,-0c66.198,-0 126.025,26.823 169.393,70.191c43.368,43.385 70.156,103.229 70.156,169.358l17.362,-0c-0,-141.806 -115.001,-256.893 -256.911,-256.91l-3239.18,-0c-141.892,0.017 -256.892,115.104 -256.91,256.91l0,2308.92c0.018,64.132 51.997,116.111 116.129,116.129l3520.76,-0c64.132,-0.018 116.112,-51.997 116.112,-116.129l-0,-2308.92Z" style="fill:#a8a3d0;fill-rule:nonzero;"/><path d="M4890.03,1281.41l-0,10.451l-3735.64,-0l0,-10.451c0,-137.014 111.146,-248.23 248.229,-248.23l3239.18,0c137.118,0 248.23,111.216 248.23,248.23Z" style="fill:#635faa;fill-rule:nonzero;"/><path d="M1808.32,1487.92l-448.438,-0c-29.947,-0 -54.236,-24.288 -54.236,-54.236c0,-29.948 24.289,-54.219 54.236,-54.219l448.438,-0c29.948,-0 54.236,24.271 54.236,54.219c-0,29.948 -24.288,54.236 -54.236,54.236Z" style="fill:#fcb352;fill-rule:nonzero;"/><path d="M3464.34,1476.44l-197.57,-0c-17.552,-0 -31.806,-14.236 -31.806,-31.806c0,-17.569 14.254,-31.805 31.806,-31.805l197.57,-0c17.568,-0 31.805,14.236 31.805,31.805c-0,17.57 -14.237,31.806 -31.805,31.806Z" style="fill:#e9e0ef;fill-rule:nonzero;"/><path d="M3837.93,1476.44l-197.569,-0c-17.587,-0 -31.824,-14.236 -31.824,-31.806c0,-17.569 14.237,-31.805 31.824,-31.805l197.569,-0c17.552,-0 31.805,14.236 31.805,31.805c0,17.57 -14.253,31.806 -31.805,31.806Z" style="fill:#e9e0ef;fill-rule:nonzero;"/><path d="M4217.12,1476.44l-197.569,-0c-17.57,-0 -31.806,-14.236 -31.806,-31.806c-0,-17.569 14.236,-31.805 31.806,-31.805l197.569,-0c17.552,-0 31.805,14.236 31.805,31.805c0,17.57 -14.253,31.806 -31.805,31.806Z" style="fill:#e9e0ef;fill-rule:nonzero;"/><path d="M4590.69,1476.44l-197.57,-0c-17.552,-0 -31.806,-14.236 -31.806,-31.806c0,-17.569 14.254,-31.805 31.806,-31.805l197.57,-0c17.586,-0 31.823,14.236 31.823,31.805c-0,17.57 -14.237,31.806 -31.823,31.806Z" style="fill:#e9e0ef;fill-rule:nonzero;"/><path d="M2984.67,2818.63l-1462.1,-0c-20.746,-0 -37.552,-16.823 -37.552,-37.552l0,-930.244c0,-20.729 16.806,-37.534 37.552,-37.534l1462.1,-0c20.747,-0 37.552,16.805 37.552,37.534l-0,930.244c-0,20.729 -16.805,37.552 -37.552,37.552Z" style="fill:#e9e0ef;fill-rule:nonzero;"/><path d="M4196.49,1971.81l-830.122,-0c-16.128,-0 -29.201,-13.073 -29.201,-29.202l-0,-100.121c-0,-16.111 13.073,-29.184 29.201,-29.184l830.122,-0c16.128,-0 29.219,13.073 29.219,29.184l-0,100.121c-0,16.129 -13.091,29.202 -29.219,29.202Z" style="fill:#e9e0ef;fill-rule:nonzero;"/><path d="M3959.58,2163.18l-594.254,0c-15.556,0 -28.16,-12.604 -28.16,-28.16c-0,-15.538 12.604,-28.159 28.16,-28.159l594.254,-0c15.555,-0 28.159,12.621 28.159,28.159c-0,15.556 -12.604,28.16 -28.159,28.16Z" style="fill:#e9e0ef;fill-rule:nonzero;"/><path d="M4554.22,2299.27l-1188.89,0c-15.556,0 -28.16,-12.604 -28.16,-28.16c-0,-15.555 12.604,-28.159 28.16,-28.159l1188.89,-0c15.538,-0 28.142,12.604 28.142,28.159c-0,15.556 -12.604,28.16 -28.142,28.16Z" style="fill:#e9e0ef;fill-rule:nonzero;"/><path d="M4554.22,2435.37l-1188.89,-0c-15.556,-0 -28.16,-12.604 -28.16,-28.143c-0,-15.572 12.604,-28.159 28.16,-28.159l1188.89,-0c15.538,-0 28.142,12.587 28.142,28.159c-0,15.539 -12.604,28.143 -28.142,28.143Z" style="fill:#e9e0ef;fill-rule:nonzero;"/><path d="M4554.22,2571.48l-1188.89,0c-15.556,0 -28.16,-12.622 -28.16,-28.16c-0,-15.555 12.604,-28.159 28.16,-28.159l1188.89,-0c15.538,-0 28.142,12.604 28.142,28.159c-0,15.538 -12.604,28.16 -28.142,28.16Z" style="fill:#e9e0ef;fill-rule:nonzero;"/><path d="M3739.97,2862.97l-341.527,-0c-33.837,-0 -61.268,-27.431 -61.268,-61.285c-0,-33.837 27.431,-61.284 61.268,-61.284l341.527,-0c33.837,-0 61.267,27.447 61.267,61.284c0,33.854 -27.43,61.285 -61.267,61.285Z" style="fill:#fcb352;fill-rule:nonzero;"/><path d="M4890.03,3200.35l-0,389.983c-0,59.34 -48.091,107.448 -107.431,107.448l-3520.76,0c-59.34,0 -107.448,-48.108 -107.448,-107.448l0,-389.983l3735.64,0Z" style="fill:#e9e0ef;fill-rule:nonzero;"/><path d="M3897.22,3426.09l-0,271.684l-1749.98,0l-0,-271.684c-0,-31.406 25.451,-56.858 56.84,-56.858l1636.27,0c31.406,0 56.875,25.452 56.875,56.858Z" style="fill:#635faa;fill-rule:nonzero;"/><path d="M4322.69,1174.53c-0,17.864 -14.479,32.326 -32.344,32.326c-17.847,-0 -32.327,-14.462 -32.327,-32.326c0,-17.865 14.48,-32.327 32.327,-32.327c17.865,0 32.344,14.462 32.344,32.327Z" style="fill:#fcb352;fill-rule:nonzero;"/><path d="M4499.44,1174.53c-0,17.864 -14.462,32.326 -32.326,32.326c-17.847,-0 -32.309,-14.462 -32.309,-32.326c0,-17.865 14.462,-32.327 32.309,-32.327c17.864,0 32.326,14.462 32.326,32.327Z" style="fill:#fcb352;fill-rule:nonzero;"/><path d="M4668.4,1174.53c0,17.864 -14.479,32.326 -32.343,32.326c-17.848,-0 -32.327,-14.462 -32.327,-32.326c0,-17.865 14.479,-32.327 32.327,-32.327c17.864,0 32.343,14.462 32.343,32.327Z" style="fill:#fcb352;fill-rule:nonzero;"/><path d="M4898.72,1281.41l-17.362,-0l0,2308.92c0,27.309 -11.042,51.945 -28.923,69.844c-17.9,17.882 -42.535,28.906 -69.827,28.924l-3520.76,-0c-27.309,-0.018 -51.944,-11.042 -69.826,-28.924c-17.899,-17.899 -28.924,-42.535 -28.941,-69.844l-0,-2308.92c0.017,-66.129 26.805,-125.973 70.174,-169.358c43.367,-43.368 103.211,-70.191 169.374,-70.191l3239.18,-0c66.198,-0 126.025,26.823 169.393,70.191c43.368,43.385 70.156,103.229 70.156,169.358l17.362,-0c-0,-141.806 -115.001,-256.893 -256.911,-256.91l-3239.18,-0c-141.892,0.017 -256.892,115.104 -256.91,256.91l0,2308.92c0.018,64.132 51.997,116.111 116.129,116.129l3520.76,-0c64.132,-0.018 116.112,-51.997 116.112,-116.129l-0,-2308.92Z" style="fill:#a8a3d0;fill-rule:nonzero;"/><path d="M1485.02,2093.89l-321.944,0l-0,-802.031l791.024,-0l0,521.441l-431.528,-0c-20.746,-0 -37.552,16.805 -37.552,37.534l0,243.056Zm-125.139,-714.427c-29.947,-0 -54.236,24.271 -54.236,54.219c0,29.948 24.289,54.236 54.236,54.236l448.438,-0c29.948,-0 54.236,-24.288 54.236,-54.236c-0,-29.948 -24.288,-54.219 -54.236,-54.219l-448.438,-0Z" style="fill:#e5dbec;"/><path d="M1954.1,1291.86l-791.024,-0l-0,-10.451c0.017,-66.129 26.805,-125.973 70.174,-169.358c43.367,-43.368 103.211,-70.191 169.374,-70.191l551.476,-0l0,250Z" style="fill:#5f5ba8;fill-rule:nonzero;"/><path d="M1808.32,1487.92l-448.438,-0c-29.947,-0 -54.236,-24.288 -54.236,-54.236c0,-29.948 24.289,-54.219 54.236,-54.219l448.438,-0c29.948,-0 54.236,24.271 54.236,54.219c-0,29.948 -24.288,54.236 -54.236,54.236Z" style="fill:#e99f4d;fill-rule:nonzero;"/><path d="M1909.36,2093.89l-424.341,0l0,-243.056c0,-20.729 16.806,-37.534 37.552,-37.534l431.528,-0l0,235.85c0,24.705 -20.035,44.74 -44.739,44.74Z" style="fill:#d5c6e2;fill-rule:nonzero;"/><path d="M1145.71,2093.89l-203.854,0l0,-1163.28l967.501,0c24.704,0 44.739,20.017 44.739,44.74l0,49.149l-551.476,-0c-141.892,0.017 -256.892,115.104 -256.91,256.91l0,812.482Zm-302.725,0l-365.365,0c-24.722,0 -44.757,-20.035 -44.757,-44.74l0,-1073.8c0,-24.723 20.035,-44.74 44.757,-44.74l365.365,0l0,1163.28Z" style="fill:url(#_Linear1);"/><rect x="842.986" y="930.608" width="98.871" height="1163.28" style="fill:#e3c090;fill-rule:nonzero;"/><path d="M1163.07,2093.89l-17.362,0l0,-812.482c0.018,-141.806 115.018,-256.893 256.91,-256.91l551.476,-0l0,17.361l-551.476,-0c-66.163,-0 -126.007,26.823 -169.374,70.191c-43.369,43.385 -70.157,103.229 -70.174,169.358l-0,812.482Z" style="fill:#9690c5;fill-rule:nonzero;"/><path d="M1779.41,813.403l-0,1073.79c-0,24.739 -20.104,44.705 -44.723,44.705l-1431.82,-0c-24.618,-0 -44.704,-19.966 -44.704,-44.705l-0,-1073.79c-0,-24.74 20.086,-44.705 44.704,-44.705l1431.82,0c24.619,0 44.723,19.965 44.723,44.705Z" style="fill:#ffcc4c;fill-rule:nonzero;"/><path d="M1779.41,1497.59l-0,389.601c-0,24.739 -20.104,44.705 -44.723,44.705l-1431.82,-0c-24.618,-0 -44.704,-19.966 -44.704,-44.705l-0,-374.896c-0,-0 244.357,-421.164 417.587,-421.164c215.885,0 338.784,491.459 446.024,491.459c107.222,0 247.1,-338.09 389.132,-338.09c85.121,-0 194.496,140.469 268.507,253.09Z" style="fill:#fee7b0;fill-rule:nonzero;"/><path d="M1584.1,1009.43c0,54.705 -44.357,99.08 -99.08,99.08c-54.722,0 -99.08,-44.375 -99.08,-99.08c0,-54.722 44.358,-99.08 99.08,-99.08c54.723,0 99.08,44.358 99.08,99.08Z" style="fill:#fee7b0;fill-rule:nonzero;"/><path d="M5292.31,3045.64l-393.593,-0l-0,-1183.94l393.593,-0c15.903,-0 28.785,12.882 28.785,28.802l-0,1126.35c-0,15.903 -12.882,28.785 -28.785,28.785Z" style="fill:url(#_Linear2);"/><path d="M4881.35,3045.64l-417.761,-0c-15.902,-0 -28.784,-12.882 -28.784,-28.785l0,-445.382l119.41,0c15.538,0 28.142,-12.622 28.142,-28.16c-0,-15.555 -12.604,-28.159 -28.142,-28.159l-119.41,-0l0,-79.792l119.41,-0c15.538,-0 28.142,-12.604 28.142,-28.143c-0,-15.572 -12.604,-28.159 -28.142,-28.159l-119.41,-0l0,-79.792l119.41,0c15.538,0 28.142,-12.604 28.142,-28.16c-0,-15.555 -12.604,-28.159 -28.142,-28.159l-119.41,-0l0,-352.448c0,-15.92 12.882,-28.802 28.784,-28.802l417.761,-0l0,1183.94Z" style="fill:#e5dbec;fill-rule:nonzero;"/><path d="M4554.22,2299.27l-119.41,0l0,-56.319l119.41,-0c15.538,-0 28.142,12.604 28.142,28.159c-0,15.556 -12.604,28.16 -28.142,28.16Z" style="fill:#d5c6e2;fill-rule:nonzero;"/><path d="M4554.22,2435.37l-119.41,-0l0,-56.302l119.41,-0c15.538,-0 28.142,12.587 28.142,28.159c-0,15.539 -12.604,28.143 -28.142,28.143Z" style="fill:#d5c6e2;fill-rule:nonzero;"/><path d="M4554.22,2571.48l-119.41,0l0,-56.319l119.41,-0c15.538,-0 28.142,12.604 28.142,28.159c-0,15.538 -12.604,28.16 -28.142,28.16Z" style="fill:#d5c6e2;fill-rule:nonzero;"/><rect x="4881.35" y="1861.7" width="17.361" height="1183.94" style="fill:#9690c5;fill-rule:nonzero;"/><path d="M5438.61,2913.56l-828.716,0c-15.902,0 -28.802,-12.899 -28.802,-28.802l0,-1126.35c0,-15.903 12.9,-28.802 28.802,-28.802l828.716,-0c15.903,-0 28.785,12.899 28.785,28.802l-0,1126.35c-0,15.903 -12.882,28.802 -28.785,28.802Z" style="fill:#5354a4;fill-rule:nonzero;"/><rect x="4735.19" y="1858.21" width="578.108" height="78.125" style="fill:#928dc4;fill-rule:nonzero;"/><path d="M5145.33,2787.85l-242.169,-0c-24.115,-0 -43.664,-19.549 -43.664,-43.681c0,-24.115 19.549,-43.681 43.664,-43.681l242.169,0c24.133,0 43.681,19.566 43.681,43.681c-0,24.132 -19.548,43.681 -43.681,43.681Z" style="fill:#ffcc4c;fill-rule:nonzero;"/><path d="M5039.79,2086.91l-235.018,-0c-9.409,-0 -17.014,-7.639 -17.014,-17.031l-0,-2.9c-0,-9.392 7.605,-17.013 17.014,-17.013l235.018,-0c9.409,-0 17.031,7.621 17.031,17.013l0,2.9c0,9.392 -7.622,17.031 -17.031,17.031Z" style="fill:#928dc4;fill-rule:nonzero;"/><path d="M5343.85,2177.74l-539.08,0c-9.409,0 -17.014,-7.639 -17.014,-17.031l-0,-2.899c-0,-9.375 7.605,-17.014 17.014,-17.014l539.08,-0c9.409,-0 17.014,7.639 17.014,17.014l0,2.899c0,9.392 -7.605,17.031 -17.014,17.031Z" style="fill:#928dc4;fill-rule:nonzero;"/><path d="M5343.85,2268.58l-539.08,-0c-9.409,-0 -17.014,-7.622 -17.014,-17.014l-0,-2.9c-0,-9.392 7.605,-17.031 17.014,-17.031l539.08,0c9.409,0 17.014,7.639 17.014,17.031l0,2.9c0,9.392 -7.605,17.014 -17.014,17.014Z" style="fill:#928dc4;fill-rule:nonzero;"/><path d="M4694.38,2068.42c-0,10.209 -8.281,18.49 -18.473,18.49c-10.207,-0 -18.454,-8.281 -18.454,-18.49c-0,-10.191 8.247,-18.454 18.454,-18.454c10.192,-0 18.473,8.263 18.473,18.454Z" style="fill:#928dc4;fill-rule:nonzero;"/><path d="M5039.79,2388.61l-235.018,0c-9.409,0 -17.014,-7.621 -17.014,-17.013l-0,-2.9c-0,-9.392 7.605,-17.014 17.014,-17.014l235.018,0c9.409,0 17.031,7.622 17.031,17.014l0,2.9c0,9.392 -7.622,17.013 -17.031,17.013Z" style="fill:#928dc4;fill-rule:nonzero;"/><path d="M5343.85,2479.46l-539.08,0c-9.409,0 -17.014,-7.639 -17.014,-17.031l-0,-2.9c-0,-9.392 7.605,-17.013 17.014,-17.013l539.08,-0c9.409,-0 17.014,7.621 17.014,17.013l0,2.9c0,9.392 -7.605,17.031 -17.014,17.031Z" style="fill:#928dc4;fill-rule:nonzero;"/><path d="M5343.85,2570.3l-539.08,0c-9.409,0 -17.014,-7.621 -17.014,-17.013l-0,-2.9c-0,-9.392 7.605,-17.031 17.014,-17.031l539.08,-0c9.409,-0 17.014,7.639 17.014,17.031l0,2.9c0,9.392 -7.605,17.013 -17.014,17.013Z" style="fill:#928dc4;fill-rule:nonzero;"/><path d="M4694.38,2370.14c-0,10.209 -8.281,18.472 -18.473,18.472c-10.207,0 -18.454,-8.263 -18.454,-18.472c-0,-10.191 8.247,-18.455 18.454,-18.455c10.192,0 18.473,8.264 18.473,18.455Z" style="fill:#928dc4;fill-rule:nonzero;"/><path d="M5856.63,1704.27l-423.975,349.67c-3.317,2.743 -6.771,5.295 -10.487,7.587c-8.976,5.851 -18.82,10.226 -29.114,13.142l-68.612,19.427c-8.299,2.327 -15.365,-6.25 -11.476,-13.94l32.084,-63.664c4.827,-9.392 10.903,-17.986 18.177,-25.694c3.038,-3.264 6.285,-6.268 9.809,-9.15l421.927,-348.003c19.549,-16.129 49.167,-15.92 66.319,2.795c18.281,19.931 15.92,50.868 -4.652,67.83Z" style="fill:#ffcc4c;fill-rule:nonzero;"/><path d="M5422.17,2061.53c-8.976,5.851 -18.82,10.226 -29.114,13.142l-40.174,11.459l-28.438,7.968c-8.299,2.327 -15.365,-6.25 -11.476,-13.94l13.299,-26.32l18.785,-37.344c4.827,-9.392 10.903,-17.986 18.177,-25.694c15.365,4.548 51.042,20.364 58.941,70.729Z" style="fill:#fee7b0;fill-rule:nonzero;"/><path d="M5352.88,2086.13l-28.438,7.968c-8.299,2.327 -15.365,-6.25 -11.476,-13.94l13.299,-26.32c12.708,1.302 29.584,7.517 26.615,32.292Z" style="fill:#ffcc4c;fill-rule:nonzero;"/><path d="M4009.29,967.275l-643.958,-0l-0,-527.622c-0,-88.576 -71.823,-160.382 -160.382,-160.382l-341.771,-0l0,-117.274c0,-38.49 31.198,-69.705 69.705,-69.705l1076.41,-0c38.489,-0 69.705,31.215 69.705,69.705l0,735.573c0,38.489 -31.216,69.705 -69.705,69.705Zm-742.83,-0l-333.576,-0c-38.507,-0 -69.705,-31.216 -69.705,-69.705l0,-536.042l343.906,-0c32.796,-0 59.375,26.58 59.375,59.375l-0,546.372Z" style="fill:url(#_Linear3);"/><path d="M3365.33,967.275l-98.872,-0l-0,-546.372c-0,-32.795 -26.579,-59.375 -59.375,-59.375l-343.906,-0l0,-82.257l341.771,-0c88.559,-0 160.382,71.806 160.382,160.382l-0,527.622Z" style="fill:#e3c090;fill-rule:nonzero;"/><path d="M3990.92,69.705l0,735.573c0,38.507 -31.215,69.705 -69.688,69.705l-1076.41,-0c-38.507,-0 -69.705,-31.198 -69.705,-69.705l0,-735.573c0,-38.49 31.198,-69.705 69.705,-69.705l1076.41,-0c38.473,-0 69.688,31.215 69.688,69.705Z" style="fill:#635faa;fill-rule:nonzero;"/><path d="M3990.92,706.893l0,98.385c0,38.507 -31.215,69.705 -69.688,69.705l-1076.41,-0c-38.507,-0 -69.705,-31.198 -69.705,-69.705l0,-98.385l1215.8,-0Z" style="fill:#5354a4;fill-rule:nonzero;"/><path d="M3420.68,799.184c0,8.125 2.5,15.66 6.806,21.997l-543.82,-0c-12.066,-0 -21.996,-9.809 -21.996,-21.997c-0,-12.083 9.93,-21.996 21.996,-21.996l543.82,-0c-4.306,6.337 -6.806,13.871 -6.806,21.996Z" style="fill:#635faa;fill-rule:nonzero;"/><path d="M3608.61,799.184c0,12.188 -9.931,21.997 -22.135,21.997l-158.993,-0c-4.306,-6.337 -6.806,-13.872 -6.806,-21.997c0,-8.125 2.5,-15.659 6.806,-21.996l158.993,-0c12.204,-0 22.135,9.913 22.135,21.996Z" style="fill:#8380bd;fill-rule:nonzero;"/><path d="M3498.75,799.184c0,8.125 -2.517,15.66 -6.823,21.997c-6.945,10.277 -18.767,17.1 -32.274,17.1c-13.421,0 -25.226,-6.823 -32.17,-17.1c-4.306,-6.337 -6.806,-13.872 -6.806,-21.997c0,-8.125 2.5,-15.659 6.806,-21.996c6.944,-10.278 18.749,-17.101 32.17,-17.101c13.507,-0 25.329,6.823 32.274,17.101c4.306,6.337 6.823,13.871 6.823,21.996Z" style="fill:#fff;fill-rule:nonzero;"/><path d="M3478.85,799.219c0,10.573 -8.576,19.167 -19.166,19.167c-10.608,-0 -19.202,-8.594 -19.202,-19.167c0,-10.59 8.594,-19.184 19.202,-19.184c10.59,0 19.166,8.594 19.166,19.184Z" style="fill:#635faa;fill-rule:nonzero;"/><path d="M3772.6,818.594l0,-36.684c0,-4.792 5.053,-7.899 9.323,-5.764l36.684,18.351c4.757,2.361 4.757,9.149 -0,11.51l-36.684,18.351c-4.27,2.135 -9.323,-0.973 -9.323,-5.764Z" style="fill:#8380bd;fill-rule:nonzero;"/><path d="M3871.34,811.493l0,-22.482c0,-2.934 2.43,-4.844 4.496,-3.525l17.744,11.233c2.291,1.458 2.291,5.608 -0,7.066l-17.744,11.232c-2.066,1.303 -4.496,-0.59 -4.496,-3.524Z" style="fill:#8380bd;fill-rule:nonzero;"/><path d="M3895.3,811.493l0,-22.482c0,-2.934 2.43,-4.844 4.497,-3.525l17.76,11.233c2.292,1.458 2.292,5.608 0,7.066l-17.76,11.232c-2.067,1.303 -4.497,-0.59 -4.497,-3.524Z" style="fill:#8380bd;fill-rule:nonzero;"/><path d="M3727.5,811.493l-0,-22.482c-0,-2.934 -2.413,-4.844 -4.479,-3.525l-17.761,11.233c-2.291,1.458 -2.291,5.608 -0,7.066l17.761,11.232c2.066,1.303 4.479,-0.59 4.479,-3.524Z" style="fill:#8380bd;fill-rule:nonzero;"/><path d="M3703.56,811.493l0,-22.482c0,-2.934 -2.448,-4.844 -4.514,-3.525l-17.743,11.233c-2.309,1.458 -2.309,5.608 -0,7.066l17.743,11.232c2.066,1.303 4.514,-0.59 4.514,-3.524Z" style="fill:#8380bd;fill-rule:nonzero;"/><path d="M3599.58,364.566c0,119.618 -96.944,216.597 -216.562,216.597c-119.618,0 -216.598,-96.979 -216.598,-216.597c0,-119.618 96.98,-216.597 216.598,-216.597c119.618,-0 216.562,96.979 216.562,216.597Z" style="fill:#fbf9fc;fill-rule:nonzero;"/><path d="M3325.8,431.215l0,-133.298c0,-14.74 16.355,-23.629 28.716,-15.573l102.395,66.649c11.251,7.327 11.251,23.819 0,31.129l-102.395,66.666c-12.361,8.038 -28.716,-0.833 -28.716,-15.573Z" style="fill:#635faa;fill-rule:nonzero;"/><path d="M1368.61,4010.82l-826.91,0c-48.802,0 -88.368,-39.548 -88.368,-88.351l0,-659.566c0,-48.801 39.566,-88.35 88.368,-88.35l604.01,-0l0,415.781c0.018,64.132 51.997,116.111 116.129,116.129l195.122,-0l-0,216.006c-0,48.803 -39.549,88.351 -88.351,88.351Z" style="fill:url(#_Linear4);"/><path d="M1431.01,3200.35l-267.934,0l-0,-25.798l205.538,-0c24.357,-0 46.423,9.861 62.396,25.798Z" style="fill:#e5dbec;fill-rule:nonzero;"/><path d="M1456.96,3689.1l-195.122,-0c-27.309,-0.018 -51.944,-11.042 -69.826,-28.924c-17.899,-17.899 -28.924,-42.535 -28.941,-69.844l-0,-389.983l267.934,0c16.042,15.99 25.955,38.108 25.955,62.552l-0,426.199Z" style="fill:#d5c6e2;fill-rule:nonzero;"/><path d="M1456.96,3706.46l-195.122,-0c-64.132,-0.018 -116.111,-51.997 -116.129,-116.129l0,-415.781l17.362,-0l-0,415.781c0.017,27.309 11.042,51.945 28.941,69.844c17.882,17.882 42.517,28.906 69.826,28.924l195.122,-0l-0,17.361Z" style="fill:#9690c5;fill-rule:nonzero;"/><path d="M1256.48,3892.47l-826.909,0c-48.803,0 -88.351,-39.565 -88.351,-88.35l0,-659.583c0,-48.785 39.548,-88.334 88.351,-88.334l826.909,0c48.803,0 88.351,39.549 88.351,88.334l0,659.583c0,48.785 -39.548,88.35 -88.351,88.35Z" style="fill:#fcfbfd;fill-rule:nonzero;"/><path d="M768.628,3760.02l-38.524,-0c-7.361,-0 -12.83,-6.841 -11.198,-14.011l41.684,-184.375c1.198,-5.243 5.834,-8.958 11.198,-8.958l64.722,-0c7.361,-0 12.83,6.84 11.198,14.028l-35.903,158.819c-4.583,20.156 -22.5,34.497 -43.177,34.497Z" style="fill:#635faa;fill-rule:nonzero;"/><path d="M1103.47,3500.45l-36.545,-0l-0,-125.487l36.545,0c34.653,0 62.743,28.091 62.743,62.743c-0,34.653 -28.09,62.744 -62.743,62.744Z" style="fill:#ffcc4c;fill-rule:nonzero;"/><path d="M660.798,3575.43l98.612,0l-0,-271.684l-98.612,0c-39.982,0 -72.395,32.431 -72.395,72.396l-0,126.892c-0,39.983 32.413,72.396 72.395,72.396Z" style="fill:#ffcc4c;fill-rule:nonzero;"/><path d="M759.41,3303.75l330.468,-54.149c16.476,-2.691 31.424,10.017 31.424,26.719l0,322.76c0,16.58 -14.74,29.271 -31.146,26.771l-330.746,-50.417l-0,-271.684Z" style="fill:#fee7b0;fill-rule:nonzero;"/><path d="M714.809,3368.58l-66.181,-0c-4.062,-0 -7.361,-3.299 -7.361,-7.361c0,-4.046 3.299,-7.362 7.361,-7.362l66.181,0c4.062,0 7.361,3.316 7.361,7.362c-0,4.062 -3.299,7.361 -7.361,7.361Z" style="fill:#fee7b0;fill-rule:nonzero;"/><path d="M714.809,3396.16l-66.181,-0c-4.062,-0 -7.361,-3.299 -7.361,-7.362c0,-4.08 3.299,-7.361 7.361,-7.361l66.181,0c4.062,0 7.361,3.281 7.361,7.361c-0,4.063 -3.299,7.362 -7.361,7.362Z" style="fill:#fee7b0;fill-rule:nonzero;"/><path d="M4137.92,4255.68l-755.643,0c-13.715,0 -24.861,-11.111 -24.861,-24.843l0,-524.375l805.365,-0l-0,524.375c-0,13.732 -11.147,24.843 -24.861,24.843Z" style="fill:url(#_Linear5);"/><path d="M4162.78,3689.1l-265.556,-0l-0,-263.004c-0,-31.406 -25.469,-56.858 -56.875,-56.858l-482.934,0l0,-118.455c0,-16.875 13.681,-30.538 30.556,-30.538l614.305,0l160.504,161.91l-0,306.945Z" style="fill:#d5c6e2;fill-rule:nonzero;"/><path d="M3897.22,3689.1l-539.809,-0l0,-319.862l482.934,0c31.406,0 56.875,25.452 56.875,56.858l-0,263.004Z" style="fill:#5f5ba8;fill-rule:nonzero;"/><path d="M4162.78,3706.46l-805.365,-0l0,-17.361l805.365,-0l-0,17.361Z" style="fill:#9690c5;fill-rule:nonzero;"/><path d="M3297.07,3129.32l614.288,0l160.504,161.927l-0,848.663c-0,13.733 -11.112,24.862 -24.845,24.862l-755.642,-0c-13.732,-0 -24.844,-11.129 -24.844,-24.862l0,-980.052c0,-16.857 13.664,-30.538 30.539,-30.538Z" style="fill:#ffcc4c;fill-rule:nonzero;"/><path d="M3911.35,3129.32l0,134.236c0,15.295 12.413,27.691 27.709,27.691l132.795,0l-160.504,-161.927Z" style="fill:#fee7b0;fill-rule:nonzero;"/><path d="M3366.63,3596.35c8.542,-14.965 20.191,-26.632 35,-35c14.791,-8.35 31.354,-12.534 49.74,-12.534c21.492,-0 40.295,5.52 56.475,16.545c16.181,11.007 27.483,26.25 33.907,45.729l-44.358,-0c-4.41,-9.184 -10.625,-16.059 -18.611,-20.66c-8.004,-4.601 -17.223,-6.892 -27.691,-6.892c-11.233,-0 -21.181,2.622 -29.896,7.847c-8.733,5.243 -15.539,12.622 -20.4,22.188c-4.861,9.566 -7.291,20.763 -7.291,33.628c0,12.674 2.43,23.837 7.291,33.472c4.861,9.653 11.667,17.084 20.4,22.309c8.715,5.243 18.663,7.865 29.896,7.865c10.468,-0 19.687,-2.344 27.691,-7.031c7.986,-4.688 14.201,-11.632 18.611,-20.816l44.358,-0c-6.424,19.67 -17.674,34.965 -33.768,45.903c-16.094,10.937 -34.948,16.388 -56.614,16.388c-18.386,0 -34.949,-4.166 -49.74,-12.534c-14.809,-8.351 -26.458,-19.983 -35,-34.879c-8.542,-14.878 -12.813,-31.771 -12.813,-50.677c0,-18.924 4.271,-35.868 12.813,-50.851Z" style="fill:#fff;fill-rule:nonzero;"/><path d="M3798.3,3551.3l0,192.327l-38.593,-0l0,-125.104l-51.528,125.104l-29.201,-0l-51.806,-125.104l-0,125.104l-38.576,-0l-0,-192.327l43.819,0l61.145,143.004l61.199,-143.004l43.541,0Z" style="fill:#fff;fill-rule:nonzero;"/><path d="M3880.26,3738.68c-10.747,-4.601 -19.235,-11.198 -25.486,-19.827c-6.25,-8.663 -9.462,-18.836 -9.635,-30.59l41.319,0c0.555,7.882 3.351,14.132 8.403,18.733c5.052,4.583 11.979,6.875 20.799,6.875c9.01,-0 16.093,-2.153 21.233,-6.476c5.138,-4.305 7.707,-9.948 7.707,-16.927c0,-5.694 -1.735,-10.382 -5.225,-14.062c-3.507,-3.681 -7.864,-6.58 -13.09,-8.698c-5.244,-2.101 -12.448,-4.445 -21.632,-7.014c-12.483,-3.663 -22.639,-7.292 -30.452,-10.886c-7.812,-3.576 -14.497,-9.01 -20.121,-16.267c-5.608,-7.257 -8.403,-16.927 -8.403,-29.063c-0,-11.389 2.847,-21.302 8.542,-29.757c5.694,-8.455 13.681,-14.93 23.975,-19.427c10.295,-4.496 22.049,-6.753 35.26,-6.753c19.862,-0 35.99,4.826 48.369,14.462c12.395,9.653 19.253,23.107 20.538,40.382l-42.43,-0c-0.383,-6.632 -3.177,-12.084 -8.42,-16.389c-5.226,-4.323 -12.171,-6.476 -20.799,-6.476c-7.518,-0 -13.542,1.91 -18.056,5.781c-4.496,3.837 -6.753,9.462 -6.753,16.806c-0,5.139 1.701,9.427 5.104,12.812c3.403,3.403 7.621,6.146 12.673,8.264c5.053,2.101 12.17,4.549 21.354,7.292c12.501,3.68 22.691,7.361 30.591,11.041c7.9,3.681 14.704,9.185 20.399,16.528c5.694,7.344 8.542,16.997 8.542,28.924c-0,10.295 -2.657,19.861 -7.987,28.68c-5.347,8.803 -13.159,15.834 -23.437,21.059c-10.277,5.244 -22.482,7.865 -36.65,7.865c-13.402,0 -25.485,-2.292 -36.232,-6.892Z" style="fill:#fff;fill-rule:nonzero;"/><path d="M647.621,2578.16c-17.742,-0 -32.135,-14.375 -32.135,-32.101c0,-17.76 14.393,-32.135 32.135,-32.135c17.743,-0 32.136,14.375 32.136,32.135c-0,17.726 -14.393,32.101 -32.136,32.101Z" style="fill:#a8a3d0;fill-rule:nonzero;"/><path d="M493.75,2578.16c-17.743,-0 -32.136,-14.375 -32.136,-32.101c0,-17.76 14.393,-32.135 32.136,-32.135c17.743,-0 32.118,14.375 32.118,32.135c-0,17.726 -14.375,32.101 -32.118,32.101Z" style="fill:#a8a3d0;fill-rule:nonzero;"/><path d="M339.878,2578.16c-17.743,-0 -32.135,-14.375 -32.135,-32.101c-0,-17.76 14.392,-32.135 32.135,-32.135c17.744,-0 32.136,14.375 32.136,32.135c-0,17.726 -14.392,32.101 -32.136,32.101Z" style="fill:#a8a3d0;fill-rule:nonzero;"/><path d="M186.007,2578.16c-17.743,-0 -32.136,-14.375 -32.136,-32.101c0,-17.76 14.393,-32.135 32.136,-32.135c17.743,-0 32.118,14.375 32.118,32.135c-0,17.726 -14.375,32.101 -32.118,32.101Z" style="fill:#a8a3d0;fill-rule:nonzero;"/><path d="M32.135,2578.16c-17.743,-0 -32.135,-14.375 -32.135,-32.101c0,-17.76 14.392,-32.135 32.135,-32.135c17.743,-0 32.136,14.375 32.136,32.135c-0,17.726 -14.393,32.101 -32.136,32.101Z" style="fill:#a8a3d0;fill-rule:nonzero;"/><path d="M745.26,2715.14c-17.743,0 -32.118,-14.375 -32.118,-32.135c0,-17.743 14.375,-32.118 32.118,-32.118c17.761,-0 32.136,14.375 32.136,32.118c-0,17.76 -14.375,32.135 -32.136,32.135Z" style="fill:#a8a3d0;fill-rule:nonzero;"/><path d="M591.389,2715.14c-17.743,0 -32.118,-14.375 -32.118,-32.135c-0,-17.743 14.375,-32.118 32.118,-32.118c17.743,-0 32.135,14.375 32.135,32.118c-0,17.76 -14.392,32.135 -32.135,32.135Z" style="fill:#a8a3d0;fill-rule:nonzero;"/><path d="M437.535,2715.14c-17.761,0 -32.136,-14.375 -32.136,-32.135c0,-17.743 14.375,-32.118 32.136,-32.118c17.725,-0 32.118,14.375 32.118,32.118c-0,17.76 -14.393,32.135 -32.118,32.135Z" style="fill:#a8a3d0;fill-rule:nonzero;"/><path d="M283.646,2715.14c-17.744,0 -32.119,-14.375 -32.119,-32.135c0,-17.743 14.375,-32.118 32.119,-32.118c17.743,-0 32.135,14.375 32.135,32.118c0,17.76 -14.392,32.135 -32.135,32.135Z" style="fill:#a8a3d0;fill-rule:nonzero;"/><path d="M129.774,2715.14c-17.743,0 -32.118,-14.375 -32.118,-32.135c0,-17.743 14.375,-32.118 32.118,-32.118c17.743,-0 32.136,14.375 32.136,32.118c-0,17.76 -14.393,32.135 -32.136,32.135Z" style="fill:#a8a3d0;fill-rule:nonzero;"/><path d="M833.611,2852.1c-17.743,-0 -32.118,-14.375 -32.118,-32.136c-0,-17.725 14.375,-32.117 32.118,-32.117c17.743,-0 32.136,14.392 32.136,32.117c-0,17.761 -14.393,32.136 -32.136,32.136Z" style="fill:#a8a3d0;fill-rule:nonzero;"/><path d="M679.757,2852.1c-17.761,-0 -32.136,-14.375 -32.136,-32.136c0,-17.725 14.375,-32.117 32.136,-32.117c17.743,-0 32.118,14.392 32.118,32.117c-0,17.761 -14.375,32.136 -32.118,32.136Z" style="fill:#a8a3d0;fill-rule:nonzero;"/><path d="M525.868,2852.1c-17.743,-0 -32.118,-14.375 -32.118,-32.136c0,-17.725 14.375,-32.117 32.118,-32.117c17.743,-0 32.135,14.392 32.135,32.117c0,17.761 -14.392,32.136 -32.135,32.136Z" style="fill:#a8a3d0;fill-rule:nonzero;"/><path d="M372.014,2852.1c-17.743,-0 -32.136,-14.375 -32.136,-32.136c0,-17.725 14.393,-32.117 32.136,-32.117c17.743,-0 32.118,14.392 32.118,32.117c-0,17.761 -14.375,32.136 -32.118,32.136Z" style="fill:#a8a3d0;fill-rule:nonzero;"/><path d="M218.125,2852.1c-17.743,-0 -32.118,-14.375 -32.118,-32.136c-0,-17.725 14.375,-32.117 32.118,-32.117c17.743,-0 32.135,14.392 32.135,32.117c0,17.761 -14.392,32.136 -32.135,32.136Z" style="fill:#a8a3d0;fill-rule:nonzero;"/><path d="M2326.94,3996.48l-507.066,-0c-20.017,-0 -36.215,-16.233 -36.215,-36.233c-0,-20 16.198,-36.215 36.215,-36.215l507.066,0c20,0 36.233,16.215 36.233,36.215c-0,20 -16.233,36.233 -36.233,36.233Z" style="fill:#fadc96;fill-rule:nonzero;"/><path d="M2326.94,4177.55l-507.066,0c-20.017,0 -36.215,-16.198 -36.215,-36.215c-0,-20 16.198,-36.198 36.215,-36.198l507.066,0c20,0 36.233,16.198 36.233,36.198c-0,20.017 -16.233,36.215 -36.233,36.215Z" style="fill:#fadc96;fill-rule:nonzero;"/><path d="M4864.9,698.438l0,-17.361c-54.393,-0 -103.542,-22.032 -139.167,-57.691c-35.625,-35.677 -57.638,-84.844 -57.638,-139.236c-0,-54.393 22.013,-103.542 57.621,-139.184c35.642,-35.608 84.791,-57.622 139.184,-57.622c54.392,0 103.524,22.014 139.167,57.622c35.607,35.642 57.621,84.774 57.621,139.184c-0,54.392 -22.014,103.559 -57.621,139.236c-35.643,35.659 -84.793,57.691 -139.167,57.691l0,17.361c118.316,-0 214.149,-95.99 214.149,-214.288c-0,-118.334 -95.851,-214.167 -214.149,-214.167c-118.316,0 -214.167,95.833 -214.167,214.167c0,118.298 95.833,214.288 214.167,214.288Zm327.864,-144.74l1.598,8.524l117.881,-22.222l0,-113.819l-117.986,-20.313l-1.475,8.559l8.055,-3.229l-0.017,-0.052l-8.056,3.229l8.49,-1.788c-8.82,-41.927 -25.365,-81.128 -48.125,-115.799l-7.257,4.757l7.17,4.896l67.639,-99.097l-80.486,-80.486l-97.848,69.097l5.018,7.101l4.739,-7.275c-34.774,-22.743 -73.853,-39.183 -115.885,-47.986l-0.886,-0.191l-0.92,0l0,8.681l8.525,-1.614l-22.222,-117.813l-113.819,-0l-20.296,117.951l8.559,1.476l0,-8.681l-0.955,0l-0.868,0.191c-41.944,8.82 -81.146,25.382 -115.833,48.143l4.774,7.257l-3.889,-7.761l-0.035,0.018l3.89,7.76l4.895,-7.17l-99.08,-67.639l-80.486,80.486l69.132,97.9l7.101,-5.018l-7.275,-4.74c-22.743,34.775 -39.183,73.872 -48.002,115.799l8.488,1.788l-8.42,-2.1l-0.016,0.052l8.419,2.118l-1.596,-8.542l-117.848,22.222l-0,113.82l118.003,20.312l1.458,-8.559l-8.488,1.788c8.819,42.049 25.381,81.129 48.124,115.903l7.275,-4.757l-7.171,-4.896l-67.639,99.046l80.504,80.486l97.934,-69.167l-5.017,-7.083l-4.74,7.274c34.757,22.726 73.836,39.288 115.798,47.986l1.754,-8.49l-2.1,8.421l0.035,-0l2.1,-8.421l-8.525,1.615l22.223,117.882l113.837,-0l20.312,-118.021l-8.542,-1.476l1.771,8.49c42.031,-8.802 81.111,-25.364 115.851,-48.09l-4.74,-7.275l-4.895,7.171l99.062,67.639l80.503,-80.487l-69.132,-97.882l-7.101,5.001l7.275,4.756c22.726,-34.757 39.288,-73.836 47.969,-115.885l0.19,-0.886l0,-0.885l-8.68,0l1.598,8.524l-1.598,-8.524l-8.681,0l0,0.017l8.681,0l-8.507,-1.77c-8.229,39.861 -23.923,76.909 -45.503,109.913l-3.23,4.93l64.098,90.764l-59.983,59.966l-91.979,-62.796l-4.843,3.177c-33.004,21.58 -70.053,37.275 -109.914,45.643l-5.781,1.198l-18.819,109.427l-84.827,-0l-20.59,-109.202l-5.434,-1.353l-0.174,-0.053l-0.157,-0.034c-39.773,-8.247 -76.804,-23.941 -109.826,-45.521l-4.947,-3.23l-90.8,64.115l-59.981,-59.965l62.795,-91.945l-3.178,-4.861c-21.597,-33.003 -37.291,-70.052 -45.659,-109.947l-1.215,-5.782l-109.393,-18.82l-0,-84.808l109.167,-20.573l1.354,-5.469l0.052,-0.156l0.035,-0.156c8.368,-39.809 23.958,-76.876 45.538,-109.879l3.229,-4.948l-64.098,-90.764l59.966,-59.965l91.389,62.413l4.601,-2.309l0.451,-0.226l0.434,-0.277c32.899,-21.597 70.087,-37.309 109.861,-45.678l-1.771,-8.489l0,8.681l7.344,-0l19.045,-110.747l84.81,0l20.885,110.747l7.221,-0l0,-8.681l-1.787,8.489c39.913,8.386 76.961,23.959 109.965,45.539l4.948,3.229l90.712,-64.08l59.965,59.983l-62.813,92.014l3.195,4.843c21.58,32.9 37.274,70.07 45.66,109.861l0.139,0.729l0.312,0.747l1.788,4.514l108.368,18.646l0,84.809l-110.799,20.886l0,7.204l8.681,0Z" style="fill:#a8a3d0;fill-rule:nonzero;"/><path d="M5363.73,1172.45l4.341,-7.517c-36.789,-21.25 -57.327,-59.775 -57.327,-99.445c0,-19.479 4.949,-39.184 15.4,-57.291c21.25,-36.823 59.756,-57.379 99.409,-57.396c19.462,0.017 39.132,4.948 57.241,15.399c36.805,21.25 57.36,59.757 57.378,99.41c-0,19.461 -4.949,39.149 -15.4,57.24c-21.25,36.84 -59.826,57.43 -99.514,57.447c-19.444,0 -39.114,-4.948 -57.187,-15.364l-4.341,7.517l-4.34,7.517c20.764,11.98 43.49,17.692 65.868,17.692c45.66,-0 90.088,-23.751 114.566,-66.129c11.979,-20.781 17.709,-43.507 17.709,-65.92c0.017,-45.608 -23.699,-90 -66.059,-114.444c-20.782,-11.997 -43.525,-17.726 -65.921,-17.726c-45.607,-0 -89.999,23.715 -114.444,66.076c-12.014,20.781 -17.743,43.542 -17.726,65.972c-0.017,45.608 23.663,90.018 66.007,114.479l4.34,-7.517Zm211.337,27.639l-2.864,8.195l70.676,24.774l37.05,-64.219l-57.501,-47.83l-5.537,6.667l8.662,-0l0,-0.018l-8.662,0l8.246,2.691c6.875,-21.007 10.225,-42.673 10.225,-64.149c0,-3.941 -0.122,-7.882 -0.329,-11.788l-8.681,0.486l3.767,7.83l67.518,-32.465l-19.201,-71.615l-74.514,6.823l0.781,8.646l7.761,-3.907c-11.459,-22.638 -27.119,-43.281 -46.65,-60.764l-0.868,-0.78l-1.059,-0.521l-3.889,7.76l8.194,2.865l24.774,-70.643l-64.201,-37.066l-47.847,57.5l6.666,5.556l3.89,-7.778l-0.018,-0l-0.573,-0.295l-0.607,-0.191c-21.008,-6.875 -42.691,-10.226 -64.15,-10.226c-3.941,0 -7.881,0.104 -11.805,0.33l0.503,8.663l0,-8.68l-0.017,-0l0,8.68l7.813,-3.767l-32.466,-67.5l-71.597,19.201l6.84,74.566l8.646,-0.781l-3.923,-7.76c-22.657,11.458 -43.299,27.117 -60.747,46.597l-0.781,0.868l-0.538,1.076l7.759,3.872l2.866,-8.177l-70.66,-24.774l-37.049,64.201l57.5,47.847l5.555,-6.666l-8.246,-2.709c-6.927,21.111 -10.26,42.778 -10.26,64.305c-0,3.907 0.104,7.796 0.329,11.684l8.664,-0.485l-3.768,-7.831l-67.482,32.449l19.202,71.614l74.582,-6.84l-0.781,-8.646l-7.742,3.923c11.44,22.64 27.048,43.334 46.579,60.73l5.782,-6.476l-6.129,6.146l0.018,0.017l6.127,-6.146l-8.194,-2.864l-24.774,70.677l64.236,37.066l47.83,-57.517l-6.667,-5.556l-2.708,8.246c21.111,6.91 42.795,10.261 64.306,10.261c3.889,-0 7.778,-0.121 11.648,-0.33l-0.485,-8.663l-7.813,3.75l32.466,67.517l71.614,-19.201l-6.84,-74.566l-8.646,0.798l3.906,7.744c22.639,-11.441 43.333,-27.067 60.781,-46.65l-6.493,-5.781l-2.864,8.195l2.864,-8.195l-6.476,-5.764c-15.955,17.917 -34.878,32.205 -55.641,42.691l-5.261,2.674l6.042,65.868l-43.577,11.684l-28.75,-59.757l-5.781,0.312c-3.56,0.208 -7.136,0.313 -10.694,0.313c-19.723,-0 -39.566,-3.056 -58.89,-9.392l-5.607,-1.841l-42.258,50.799l-39.096,-22.552l21.822,-62.24l-4.044,-4.045l-0.191,-0.173c-17.865,-15.92 -32.154,-34.845 -42.657,-55.608l-2.656,-5.278l-65.902,6.042l-11.685,-43.577l59.74,-28.732l-0.33,-5.799c-0.191,-3.542 -0.295,-7.118 -0.295,-10.695c-0,-19.722 3.055,-39.565 9.393,-58.888l1.839,-5.608l-50.798,-42.257l22.552,-39.08l64.288,22.535l3.437,-6.875l-7.76,-3.889l6.459,5.798c16.007,-17.846 34.913,-32.187 55.659,-42.673l5.26,-2.656l-6.041,-65.885l43.576,-11.684l28.594,59.444l5.73,-0l0.259,-0.017c3.577,-0.209 7.188,-0.295 10.799,-0.295c19.653,-0 39.514,3.055 58.751,9.357l2.69,-8.246l-3.872,7.76l0.018,0.017l6.146,3.073l42.882,-51.545l39.08,22.552l-22.552,64.288l6.875,3.438l3.872,-7.778l-5.782,6.475c17.917,16.042 32.24,34.914 42.726,55.661l2.655,5.26l65.852,-6.024l11.683,43.576l-59.791,28.733l0.33,5.798c0.208,3.611 0.312,7.205 0.312,10.816c0,19.653 -3.073,39.497 -9.374,58.75l-0.417,1.32l0,5.468l49.375,41.094l-22.552,39.08l-62.57,-21.927l-3.872,4.34l6.476,5.764Z" style="fill:#fadc96;fill-rule:nonzero;"/></g><defs><linearGradient id="_Linear1" x1="0" y1="0" x2="1" y2="0" gradientUnits="userSpaceOnUse" gradientTransform="matrix(130.814,8037.8,-8037.8,130.814,998.316,-1357.36)"><stop offset="0" style="stop-color:#e9e0ef;stop-opacity:1"/><stop offset="1" style="stop-color:#ded9ec;stop-opacity:1"/></linearGradient><linearGradient id="_Linear2" x1="0" y1="0" x2="1" y2="0" gradientUnits="userSpaceOnUse" gradientTransform="matrix(130.814,8037.8,-8037.8,130.814,998.316,-1357.36)"><stop offset="0" style="stop-color:#e9e0ef;stop-opacity:1"/><stop offset="1" style="stop-color:#ded9ec;stop-opacity:1"/></linearGradient><linearGradient id="_Linear3" x1="0" y1="0" x2="1" y2="0" gradientUnits="userSpaceOnUse" gradientTransform="matrix(130.814,8037.8,-8037.8,130.814,998.316,-1357.36)"><stop offset="0" style="stop-color:#e9e0ef;stop-opacity:1"/><stop offset="1" style="stop-color:#ded9ec;stop-opacity:1"/></linearGradient><linearGradient id="_Linear4" x1="0" y1="0" x2="1" y2="0" gradientUnits="userSpaceOnUse" gradientTransform="matrix(130.814,8037.8,-8037.8,130.814,998.316,-1357.36)"><stop offset="0" style="stop-color:#e9e0ef;stop-opacity:1"/><stop offset="1" style="stop-color:#ded9ec;stop-opacity:1"/></linearGradient><linearGradient id="_Linear5" x1="0" y1="0" x2="1" y2="0" gradientUnits="userSpaceOnUse" gradientTransform="matrix(130.814,8037.8,-8037.8,130.814,998.316,-1357.36)"><stop offset="0" style="stop-color:#e9e0ef;stop-opacity:1"/><stop offset="1" style="stop-color:#ded9ec;stop-opacity:1"/></linearGradient></defs></svg>